<?xml version="1.0" encoding="UTF-8" standalone="no"?>
<!-- Created with Inkscape (http://www.inkscape.org/) -->

<svg
   xmlns:dc="http://purl.org/dc/elements/1.1/"
   xmlns:cc="http://creativecommons.org/ns#"
   xmlns:rdf="http://www.w3.org/1999/02/22-rdf-syntax-ns#"
   xmlns:svg="http://www.w3.org/2000/svg"
   xmlns="http://www.w3.org/2000/svg"
   xmlns:sodipodi="http://sodipodi.sourceforge.net/DTD/sodipodi-0.dtd"
   xmlns:inkscape="http://www.inkscape.org/namespaces/inkscape"
   width="210mm"
   height="297mm"
   viewBox="0 0 210 297"
   version="1.1"
   id="svg8"
   inkscape:version="0.92.2 5c3e80d, 2017-08-06"
   sodipodi:docname="tweety.svg">
  <defs
     id="defs2" />
  <sodipodi:namedview
     id="base"
     pagecolor="#ffffff"
     bordercolor="#666666"
     borderopacity="1.0"
     inkscape:pageopacity="0.0"
     inkscape:pageshadow="2"
     inkscape:zoom="0.35"
     inkscape:cx="-160"
     inkscape:cy="560"
     inkscape:document-units="mm"
     inkscape:current-layer="layer1"
     showgrid="false"
     inkscape:window-width="1440"
     inkscape:window-height="778"
     inkscape:window-x="0"
     inkscape:window-y="1"
     inkscape:window-maximized="1" />
  <metadata
     id="metadata5">
    <rdf:RDF>
      <cc:Work
         rdf:about="">
        <dc:format>image/svg+xml</dc:format>
        <dc:type
           rdf:resource="http://purl.org/dc/dcmitype/StillImage" />
        <dc:title></dc:title>
      </cc:Work>
    </rdf:RDF>
  </metadata>
  <g
     inkscape:label="Layer 1"
     inkscape:groupmode="layer"
     id="layer1">
    <path
       style="fill:#000000;stroke-width:0.26458335"
       d="m 55.108923,76.527974 c -0.363803,-0.0615 -1.494896,-0.24122 -2.513542,-0.39939 -4.956329,-0.76962 -9.556861,-2.32658 -13.890626,-4.70101 l -2.248958,-1.23218 3.704167,-0.16536 c 4.168943,-0.1861 5.831574,-0.47302 9.260417,-1.59805 2.364767,-0.77589 6.912664,-3.14578 8.258627,-4.30353 l 0.702544,-0.6043 -1.834752,-0.59951 c -2.961718,-0.96774 -4.868188,-2.10863 -6.785678,-4.06072 -1.622086,-1.65137 -3.38345,-4.45186 -3.38345,-5.37954 0,-0.26953 0.587198,-0.35908 2.447396,-0.37321 1.346068,-0.0102 2.685521,-0.12235 2.976563,-0.24917 0.501796,-0.21864 0.494953,-0.24054 -0.132292,-0.42343 -1.186048,-0.34583 -4.415483,-2.12055 -5.532408,-3.04031 -2.184471,-1.79886 -4.175102,-4.96594 -4.920838,-7.82901 -0.356433,-1.36844 -0.54459,-3.78532 -0.294691,-3.78532 0.05499,0 0.53143,0.18027 1.058757,0.4006 1.143542,0.47781 4.68549,1.2517 4.87256,1.06463 0.07237,-0.0724 -0.701587,-1.0087 -1.719908,-2.08072 -2.123369,-2.23536 -3.013579,-3.88122 -3.813111,-7.04984 -0.72076,-2.85645 -0.594667,-5.64143 0.382516,-8.44859 0.375009,-1.07729 0.808782,-2.08566 0.963939,-2.24081 0.199749,-0.19975 1.057903,0.50406 2.939589,2.41089 6.600084,6.68829 13.911582,10.61172 23.031296,12.35885 1.923833,0.36856 3.55832,0.60967 3.632194,0.53579 0.07388,-0.0739 0.108075,-1.35279 0.076,-2.84204 -0.0975,-4.52716 1.156081,-7.75591 4.251013,-10.94898 3.034355,-3.13057 6.572533,-4.65733 10.791841,-4.65679 3.765783,4.8e-4 6.91052,1.10125 9.746959,3.4118 0.777727,0.63353 1.66488,1.15188 1.971453,1.15188 0.93972,0 4.9017,-1.30606 6.87448,-2.26615 1.02739,-0.5 1.92263,-0.85445 1.98941,-0.78766 0.22624,0.22624 -0.77825,2.37553 -1.69192,3.6202 -0.49983,0.68091 -1.62768,1.90359 -2.50633,2.71706 -1.09097,1.01004 -1.44594,1.47846 -1.11944,1.47719 0.76107,-0.003 4.64382,-0.98268 6.12524,-1.54557 1.3374,-0.50818 1.35027,-0.5082 1.07934,-0.002 -0.57987,1.0835 -3.57608,4.32102 -5.30955,5.73718 l -1.81381,1.48178 v 2.48907 c 0,4.13659 -1.06263,10.0127 -2.5916,14.33094 -0.283387,0.80037 -1.117473,2.70537 -1.853523,4.23334 -4.531622,9.40719 -12.191532,16.89436 -21.27853,20.79866 -5.440323,2.33749 -10.112664,3.2994 -16.60968,3.4195 -2.546614,0.0471 -4.927864,0.0353 -5.291666,-0.0262 z"
       id="path828"
       inkscape:connector-curvature="0" />
    <path
       style="fill:#000000;stroke-width:0.26458332"
       d="m 124.37308,102.3342 c -4.06742,-0.74185 -6.8678,-1.54097 -9.777,-2.789974 -2.67183,-1.1471 -6.59157,-3.29439 -6.098,-3.34057 0.14552,-0.0136 1.03849,-0.0122 1.98437,0.003 6.44244,0.10466 12.62298,-1.65045 17.92927,-5.09146 2.00084,-1.29749 5.83583,-4.79919 6.38999,-5.83465 0.34556,-0.6457 0.29746,-0.74999 -1.00166,-2.17144 -2.29839,-2.5148 -3.27645,-4.71499 -3.85468,-8.67129 l -0.18648,-1.27584 1.20631,0.1809 c 0.66347,0.0995 1.51697,0.10293 1.89666,0.008 l 0.69035,-0.17327 -1.19158,-1.27389 c -1.87109,-2.00034 -3.0257,-4.7321 -3.58957,-8.49279 -0.47436,-3.16374 -0.49143,-8.28837 -0.03,-8.99583 0.21391,-0.32794 0.38093,-0.23603 0.96154,0.52916 1.49319,1.96787 5.2903,5.44323 6.84128,6.26158 1.82136,0.96101 4.1277,1.60305 6.19387,1.72425 1.38796,0.0814 1.43785,0.0603 1.64509,-0.69722 0.11755,-0.42964 0.0942,-1.62027 -0.0519,-2.64583 -0.99319,-6.97189 3.1608,-13.74832 9.99254,-16.30087 2.10854,-0.78782 2.59143,-0.86848 5.10687,-0.85307 4.22306,0.0259 7.06332,1.03805 10.129,3.60964 l 1.26547,1.06152 1.90953,-0.47858 c 1.05025,-0.26322 3.08017,-0.99953 4.51095,-1.63625 1.43078,-0.63672 2.7092,-1.15767 2.84094,-1.15767 0.13173,0 -0.0564,0.66907 -0.41803,1.48683 -0.73769,1.66805 -2.95405,4.53304 -4.30231,5.56141 -0.48898,0.37297 -0.83867,0.72851 -0.77708,0.79009 0.17159,0.1716 4.46155,-0.87631 6.03495,-1.47415 0.7683,-0.29193 1.45059,-0.47711 1.5162,-0.4115 0.33548,0.33548 -4.13035,5.24834 -6.17316,6.79109 -1.16952,0.88323 -1.18218,0.92334 -1.18658,3.75873 -0.0182,11.75542 -6.07593,24.6317 -15.29907,32.51981 -2.60552,2.22838 -7.32766,5.24977 -9.70811,6.21159 -0.87312,0.35278 -1.94468,0.79861 -2.38125,0.990734 -1.40239,0.61715 -4.15949,1.4061 -7.01145,2.00634 -3.93301,0.82776 -12.19001,0.9679 -16.0073,0.27168 z"
       id="path841"
       inkscape:connector-curvature="0" />
    <path
       style="fill:#000000;stroke-width:0.26458332"
       d="m 28.102515,162.2261 c -4.07112,-0.74495 -6.72005,-1.50422 -9.704167,-2.78153 -2.736553,-1.17134 -6.296079,-3.06784 -6.300676,-3.35696 -0.0013,-0.0847 0.627864,-0.10179 1.398247,-0.0379 2.247819,0.18641 7.595506,-0.41128 10.141096,-1.13343 4.38375,-1.2436 8.90344,-3.7874 12.22854,-6.88254 3.07562,-2.86291 6.81413,-8.67712 8.80891,-13.69979 0.57503,-1.44788 2.07938,-6.36606 2.5654,-8.38706 1.07461,-4.46856 1.09192,-4.60516 0.82168,-6.4823 -1.00036,-6.9485 3.16399,-13.73736 9.9914,-16.2883 2.10854,-0.78782 2.59143,-0.86848 5.10686,-0.85307 4.22397,0.0259 7.06323,1.03796 10.13089,3.61124 l 1.26735,1.0631 2.21538,-0.58104 c 1.21846,-0.31957 3.24961,-1.0566 4.51368,-1.63784 1.26407,-0.58123 2.40401,-1.05679 2.53321,-1.05679 0.1292,0 -0.061,0.66907 -0.42264,1.48682 -0.73769,1.66805 -2.95405,4.53304 -4.30231,5.56141 -0.48899,0.37297 -0.83868,0.72851 -0.77709,0.79009 0.1716,0.1716 4.46156,-0.87631 6.03495,-1.47415 0.76831,-0.29193 1.4506,-0.47711 1.5162,-0.4115 0.33549,0.33549 -4.13034,5.24835 -6.17316,6.7911 -1.16951,0.88322 -1.18217,0.92333 -1.18657,3.75873 -0.0184,11.88146 -6.21964,24.92477 -15.55443,32.71636 -5.39288,4.50135 -11.37491,7.38934 -18.44858,8.90654 -4.34183,0.93126 -12.37172,1.11669 -16.40417,0.37882 z"
       id="path854"
       inkscape:connector-curvature="0" />
    <path
       style="fill:#000000;stroke-width:0.26458335"
       d="m 24.833025,266.73494 c -4.02641,-0.73436 -6.631,-1.47768 -9.67022,-2.75975 -2.71908,-1.14703 -6.7231902,-3.32228 -6.2047802,-3.37079 0.14552,-0.0136 1.03849,-0.0122 1.9843702,0.003 10.23582,0.16628 19.56963,-4.32004 25.16439,-12.09536 1.79297,-2.49178 4.28617,-7.08025 5.35366,-9.85285 1.57107,-4.08055 3.40742,-11.01889 3.39629,-12.83229 -0.004,-0.58209 -0.0372,-2.24896 -0.0748,-3.70417 -0.0762,-2.95226 0.23927,-4.24419 1.79828,-7.36406 0.99508,-1.99132 3.58372,-4.76163 5.45457,-5.83735 0.60977,-0.35061 2.00163,-0.96748 3.09304,-1.37082 1.71951,-0.63547 2.35518,-0.73113 4.7625,-0.71669 4.22274,0.0253 7.06296,1.03737 10.12901,3.60928 l 1.26546,1.06151 1.90954,-0.47852 c 1.05024,-0.26318 3.13307,-1.01619 4.62851,-1.67334 1.49544,-0.65716 2.77046,-1.14335 2.83338,-1.08043 0.0629,0.0629 -0.1813,0.75263 -0.54271,1.5327 -0.75722,1.63437 -2.98986,4.48547 -4.28764,5.47533 -0.48898,0.37297 -0.83952,0.72766 -0.77897,0.78821 0.18289,0.18289 5.00094,-0.99846 6.24597,-1.53147 0.63906,-0.27359 1.22142,-0.43794 1.29414,-0.36523 0.34668,0.34668 -4.07152,5.22662 -6.16023,6.80403 -0.43656,0.32969 -0.88123,0.72261 -0.98814,0.87315 -0.10691,0.15054 -0.19691,1.46433 -0.2,2.91954 -0.009,4.08581 -1.04638,9.85307 -2.49254,13.85265 -0.22922,0.63396 -0.35953,1.24528 -0.28956,1.35849 0.07,0.11321 0.93236,0.36842 1.91643,0.56714 1.87183,0.37799 9.64333,0.47542 10.9835,0.1377 0.61961,-0.15614 0.7276,-0.10153 0.7276,0.36795 0,1.5448 -2.78182,6.23683 -4.75413,8.01871 -2.69618,2.43582 -5.28618,3.55399 -8.44936,3.64779 -1.17829,0.0349 -2.14234,0.13924 -2.14234,0.23178 0,0.37957 1.29888,1.31569 3.01499,2.17296 l 1.82437,0.91135 -0.94016,1.04065 c -1.26268,1.39764 -4.94458,3.42241 -6.97438,3.8354 -1.9572,0.39822 -5.27521,0.0188 -7.17183,-0.82022 -0.66652,-0.29483 -1.26959,-0.47832 -1.34015,-0.40776 -0.15371,0.15371 0.90333,1.57002 2.18972,2.93399 0.51192,0.5428 0.93077,1.07773 0.93077,1.18875 0,0.51954 -3.6616,1.62427 -5.847,1.76408 -2.36482,0.1513 -4.24911,-0.2715 -6.20208,-1.3916 -0.74685,-0.42835 -0.83849,-0.42396 -1.97384,0.0945 -1.84329,0.84179 -3.56208,1.35524 -7.01146,2.0945 -4.32273,0.92643 -12.35285,1.10626 -16.40416,0.36735 z"
       id="path867"
       inkscape:connector-curvature="0" />
  </g>
</svg>
